<?xml version="1.0" encoding="UTF-8"?>
<svg width="400" height="400" version="1.0" xmlns="http://www.w3.org/2000/svg">
 <g transform="translate(-256.68 -531.8)">
  <g stroke-width="1px" aria-label="β">
   <path d="m402.72 925.91h-32.227q7.0312-33.008 7.0312-59.766v-212.7q0-33.203 5.8594-49.414 6.0547-16.211 23.242-28.516 17.383-12.5 43.359-12.5 30.859 0 51.758 16.406 21.094 16.211 21.094 46.289 0 35.156-33.398 57.617 49.805 23.438 49.805 73.633 0 27.344-13.281 49.023-13.086 21.484-30.469 30.664-17.188 9.1797-41.211 9.1797-27.344 0-44.531-20.508v36.328q0 37.5-7.0312 64.258zm7.0312-118.16q15.234 25.195 42.578 25.195 26.367 0 38.672-19.141 12.305-19.336 12.305-46.875 0-21.094-8.2031-42.969-8.0078-22.07-20.703-33.594-11.719 2.9297-21.094 2.9297-19.727 0-19.727-10.352 0-9.375 16.602-9.375 10.352 0 25.781 4.6875 13.867-23.438 13.867-50.977 0-24.609-10.938-37.695-10.742-13.086-28.125-13.086-13.867 0-23.828 7.8125-9.7656 7.8125-13.477 18.75-3.7109 10.742-3.7109 35.352z"/>
  </g>
 </g>
</svg>
